<svg id="visual" viewBox="0 0 900 600" width="900" height="600" xmlns="http://www.w3.org/2000/svg" xmlns:xlink="http://www.w3.org/1999/xlink" version="1.1"><rect x="0" y="0" width="900" height="600" fill="#12181b"></rect><path d="M431 0L417.2 16.7C403.3 33.3 375.7 66.7 376.3 100C377 133.3 406 166.7 418.8 200C431.7 233.3 428.3 266.7 416 300C403.7 333.3 382.3 366.7 380.5 400C378.7 433.3 396.3 466.7 404.2 500C412 533.3 410 566.7 409 583.3L408 600L0 600L0 583.3C0 566.7 0 533.3 0 500C0 466.7 0 433.3 0 400C0 366.7 0 333.3 0 300C0 266.7 0 233.3 0 200C0 166.7 0 133.3 0 100C0 66.7 0 33.3 0 16.7L0 0Z" fill="#e14f4f"></path><path d="M288 0L296.8 16.7C305.7 33.3 323.3 66.7 333.5 100C343.7 133.3 346.3 166.7 347 200C347.7 233.3 346.3 266.7 334.2 300C322 333.3 299 366.7 284.7 400C270.3 433.3 264.7 466.7 273.3 500C282 533.3 305 566.7 316.5 583.3L328 600L0 600L0 583.3C0 566.7 0 533.3 0 500C0 466.7 0 433.3 0 400C0 366.7 0 333.3 0 300C0 266.7 0 233.3 0 200C0 166.7 0 133.3 0 100C0 66.7 0 33.3 0 16.7L0 0Z" fill="#d63c5e"></path><path d="M239 0L239.2 16.7C239.3 33.3 239.7 66.7 249.8 100C260 133.3 280 166.7 285 200C290 233.3 280 266.7 276.8 300C273.7 333.3 277.3 366.7 266.5 400C255.7 433.3 230.3 466.7 217.2 500C204 533.3 203 566.7 202.5 583.3L202 600L0 600L0 583.3C0 566.7 0 533.3 0 500C0 466.7 0 433.3 0 400C0 366.7 0 333.3 0 300C0 266.7 0 233.3 0 200C0 166.7 0 133.3 0 100C0 66.7 0 33.3 0 16.7L0 0Z" fill="#c52d6c"></path><path d="M191 0L187.8 16.7C184.7 33.3 178.3 66.7 183.7 100C189 133.3 206 166.7 202.3 200C198.7 233.3 174.3 266.7 176.7 300C179 333.3 208 366.7 214.2 400C220.3 433.3 203.7 466.7 189.8 500C176 533.3 165 566.7 159.5 583.3L154 600L0 600L0 583.3C0 566.7 0 533.3 0 500C0 466.7 0 433.3 0 400C0 366.7 0 333.3 0 300C0 266.7 0 233.3 0 200C0 166.7 0 133.3 0 100C0 66.7 0 33.3 0 16.7L0 0Z" fill="#af2779"></path><path d="M173 0L167.5 16.7C162 33.3 151 66.7 146.7 100C142.3 133.3 144.7 166.7 146.3 200C148 233.3 149 266.7 147.3 300C145.7 333.3 141.3 366.7 145.2 400C149 433.3 161 466.7 155.3 500C149.7 533.3 126.3 566.7 114.7 583.3L103 600L0 600L0 583.3C0 566.7 0 533.3 0 500C0 466.7 0 433.3 0 400C0 366.7 0 333.3 0 300C0 266.7 0 233.3 0 200C0 166.7 0 133.3 0 100C0 66.7 0 33.3 0 16.7L0 0Z" fill="#932884"></path><path d="M71 0L68 16.7C65 33.3 59 66.7 60.7 100C62.3 133.3 71.7 166.7 75.5 200C79.3 233.3 77.7 266.7 72.3 300C67 333.3 58 366.7 55.3 400C52.7 433.3 56.3 466.7 58.2 500C60 533.3 60 566.7 60 583.3L60 600L0 600L0 583.3C0 566.7 0 533.3 0 500C0 466.7 0 433.3 0 400C0 366.7 0 333.3 0 300C0 266.7 0 233.3 0 200C0 166.7 0 133.3 0 100C0 66.7 0 33.3 0 16.7L0 0Z" fill="#712d8b"></path></svg>